<?xml version="1.0" standalone="yes"?>

<svg version="1.1" viewBox="0.0 0.0 110.63517060367454 100.0" fill="none" stroke="none" stroke-linecap="square" stroke-miterlimit="10" xmlns="http://www.w3.org/2000/svg" xmlns:xlink="http://www.w3.org/1999/xlink"><clipPath id="p.0"><path d="m0 0l110.63517 0l0 100.0l-110.63517 0l0 -100.0z" clip-rule="nonzero"></path></clipPath><g clip-path="url(#p.0)"><path fill="#000000" fill-opacity="0.0" d="m0 0l110.63517 0l0 100.0l-110.63517 0z" fill-rule="evenodd"></path><path fill="#000000" fill-opacity="0.0" d="m0 0l108.09449 0l0 88.0l-108.09449 0z" fill-rule="evenodd"></path><path fill="#cfe2f3" d="m28.25 68.6275q-0.125 -0.0625 -0.96875 -0.5q-0.84375 -0.4375 -1.75 -1.0625q-0.90625 -0.625 -1.59375 -1.3125q-0.6875 -0.6875 -0.5625 -1.3125q0.25 -0.6875 0.78125 -0.96875q0.53125 -0.28125 1.0625 -0.53125q0.53125 -0.25 0.90625 -0.6875q0.375 -0.4375 0.3125 -1.4375q-1.0625 -7.4375 -1.9375 -13.15625q-0.875 -5.71875 -1.84375 -9.59375q-0.96875 -3.875 -2.125 -5.875q-1.15625 -2.0 -2.84375 -2.0q-0.0625 0 -0.0625 0l-0.125 0l-0.125 0q-0.5 0.3125 -1.34375 0.65625q-0.84375 0.34375 -1.8125 0.6875q-0.96875 0.34375 -1.90625 0.625q-0.9375 0.28125 -1.5 0.46875q-0.125 0 -0.3125 0.0625q-0.125 0 -0.25 0l0 -1.875q0 -0.625 1.125 -1.1875q1.125 -0.5625 2.84375 -1.09375q1.71875 -0.53125 3.78125 -1.0q2.0625 -0.46875 3.96875 -0.78125q1.90625 -0.3125 3.40625 -0.5q1.5 -0.1875 2.0 -0.1875q1.125 0 2.6875 0.25q1.5625 0.25 3.28125 0.75q1.71875 0.5 3.375 1.28125q1.65625 0.78125 2.96875 1.78125q1.3125 1.0 2.125 2.25q0.8125 1.1875 0.8125 2.6875q0 1.625 -0.65625 3.0q-0.65625 1.375 -1.5 2.46875q-0.84375 1.09375 -1.5 1.9375q-0.65625 0.84375 -0.65625 1.59375q0 0.125 1.21875 0.71875q1.21875 0.59375 3.125 1.65625q1.90625 1.0625 4.09375 2.625q2.1875 1.5625 4.09375 3.46875q1.90625 1.90625 3.15625 4.125q1.25 2.21875 1.25 4.71875q0 2.625 -1.15625 4.375q-1.15625 1.75 -2.96875 2.78125q-1.8125 1.03125 -4.03125 1.5q-2.21875 0.46875 -4.28125 0.46875q-2.0625 0 -3.65625 -0.09375q-1.59375 -0.09375 -3.1875 -0.3125q-1.59375 -0.21875 -3.40625 -0.5625q-1.8125 -0.34375 -4.3125 -0.90625zm1.8125 -7.4375q-0.8125 1.25 -0.5 2.1875q0.3125 0.9375 1.375 1.625q1.0625 0.6875 2.5625 1.09375q1.5 0.40625 3.0 0.625q1.5 0.21875 2.75 0.21875q1.25 0 1.875 -0.0625q1.875 0 3.6875 -0.15625q1.8125 -0.15625 3.1875 -0.8125q1.375 -0.65625 2.1875 -1.90625q0.8125 -1.25 0.8125 -3.4375q0 -3.0625 -1.59375 -5.09375q-1.59375 -2.03125 -4.0 -3.46875q-2.40625 -1.4375 -5.21875 -2.40625q-2.8125 -0.96875 -5.25 -1.8125q-2.4375 -0.84375 -4.0 -1.78125q-1.5625 -0.9375 -1.5625 -2.25q0 -0.6875 0.71875 -1.09375q0.71875 -0.40625 1.8125 -0.71875q1.09375 -0.3125 2.34375 -0.65625q1.25 -0.34375 2.375 -1.0q1.125 -0.65625 1.84375 -1.65625q0.71875 -1.0 0.71875 -2.6875q0 -1.375 -0.75 -2.4375q-0.75 -1.0625 -1.90625 -1.8125q-1.15625 -0.75 -2.5 -1.125q-1.34375 -0.375 -2.53125 -0.375q-1.75 0 -3.625 0.375q-1.875 0.375 -3.25 1.5q0.75 3.1875 1.6875 7.0q0.9375 3.8125 1.78125 7.71875q0.84375 3.90625 1.40625 7.65625q0.5625 3.75 0.5625 6.75zm49.125 -11.8125q-0.5625 0.25 -1.65625 0.78125q-1.09375 0.53125 -2.53125 1.1875q-1.4375 0.65625 -3.0 1.375q-1.5625 0.71875 -2.96875 1.40625q-1.40625 0.6875 -2.5625 1.1875q-1.15625 0.5 -1.65625 0.75l0.125 12.5q0 0.1875 -0.4375 0.65625q-0.4375 0.46875 -0.6875 0.59375q-1.0 0.25 -1.40625 -0.78125q-0.40625 -1.03125 -0.5625 -2.6875q-0.15625 -1.65625 -0.25 -3.53125q-0.09375 -1.875 -0.4375 -3.4375q-0.34375 -1.5625 -1.15625 -2.40625q-0.8125 -0.84375 -2.3125 -0.34375q-0.0625 -0.125 -0.15625 -0.4375q-0.09375 -0.3125 -0.09375 -0.4375q0 -0.8125 0.40625 -1.0625q0.40625 -0.25 0.90625 -0.46875q0.5 -0.21875 0.90625 -0.5625q0.40625 -0.34375 0.40625 -1.28125q0 -2.5 -0.1875 -4.9375q-0.1875 -2.4375 -0.4375 -4.9375q-0.25 -2.5 -0.4375 -4.96875q-0.1875 -2.46875 -0.1875 -4.90625q0 -0.1875 0 -0.625q0 -0.4375 0 -0.90625q0 -0.46875 0 -0.875q0 -0.40625 0 -0.53125q0.1875 -0.5 0.53125 -0.625q0.34375 -0.125 0.71875 -0.125q0.3125 0 0.75 0.125q0.375 0.125 0.375 0.625l2.5 20.9375q0 0.125 0.21875 0.625q0.21875 0.5 0.34375 0.5625l0.25 0l0.3125 0q0.25 -0.0625 1.0 -0.25q0.75 -0.1875 2.625 -0.96875q1.875 -0.78125 5.1875 -2.375q3.3125 -1.59375 8.9375 -4.34375l0.25 -14.1875q0 -0.375 0.25 -0.84375q0.25 -0.46875 0.625 -0.84375q0.375 -0.375 0.75 -0.59375q0.375 -0.21875 0.75 -0.21875q0.5625 0 0.90625 0.1875q0.34375 0.1875 0.34375 1.0625q0 0.1875 -0.25 0.65625q-0.25 0.46875 -0.3125 0.59375q0 0.25 -0.03125 0.875q-0.03125 0.625 -0.03125 1.34375q0 0.71875 0 1.375q0 0.65625 0 0.90625q0 5.3125 0.125 10.625q0.125 5.3125 0.5 10.5625q0.0625 0.625 0.21875 2.21875q0.15625 1.59375 0.34375 3.40625q0.1875 1.8125 0.375 3.46875q0.1875 1.65625 0.3125 2.34375q0 0.125 0.0625 0.375q0.0625 0.25 0.1875 0.5625q0.125 0.3125 0.1875 0.5625q0.0625 0.25 0.125 0.3125l0 0.375l0 0.1875q-0.125 0.125 -0.375 0.34375q-0.25 0.21875 -0.53125 0.40625q-0.28125 0.1875 -0.53125 0.34375q-0.25 0.15625 -0.375 0.15625q-0.875 0.1875 -1.4375 -0.75q-0.5625 -0.9375 -0.875 -2.21875q-0.3125 -1.28125 -0.4375 -2.53125q-0.125 -1.25 -0.1875 -1.75q0 -0.0625 -0.03125 -0.9375q-0.03125 -0.875 -0.09375 -2.21875q-0.0625 -1.34375 -0.15625 -3.03125q-0.09375 -1.6875 -0.21875 -3.375q-0.125 -1.6875 -0.28125 -3.1875q-0.15625 -1.5 -0.28125 -2.5l-3.25 1.4375z" fill-rule="nonzero"></path></g></svg>

